<?xml version="1.0" encoding="UTF-8" standalone="no"?>
<svg
   width="866"
   height="866"
   viewBox="0 0 866 866"
   version="1.1"
   xml:space="preserve"
   style="clip-rule:evenodd;fill-rule:evenodd;stroke-linejoin:round;stroke-miterlimit:2"
   id="svg13"
   sodipodi:docname="Logo.svg"
   inkscape:version="1.4.3 (0d15f75, 2025-12-25)"
   xmlns:inkscape="http://www.inkscape.org/namespaces/inkscape"
   xmlns:sodipodi="http://sodipodi.sourceforge.net/DTD/sodipodi-0.dtd"
   xmlns="http://www.w3.org/2000/svg"
   xmlns:svg="http://www.w3.org/2000/svg"><sodipodi:namedview
   id="namedview13"
   pagecolor="#ffffff"
   bordercolor="#000000"
   borderopacity="0.25"
   inkscape:showpageshadow="2"
   inkscape:pageopacity="0.0"
   inkscape:pagecheckerboard="0"
   inkscape:deskcolor="#d1d1d1"
   inkscape:zoom="0.66684447"
   inkscape:cx="299.17021"
   inkscape:cy="360.65381"
   inkscape:window-width="1920"
   inkscape:window-height="1013"
   inkscape:window-x="-9"
   inkscape:window-y="-9"
   inkscape:window-maximized="1"
   inkscape:current-layer="svg13" />
    <g
   transform="translate(-107.37099,-107.00142)"
   id="g6">
        <g
   transform="matrix(2.197108,0,0,2.197108,-3140.5458,-646.43818)"
   id="g5">
            <g
   transform="matrix(-0.723344,-0.723344,0.723344,-0.723344,2426.8473,2057.3611)"
   id="g1">
                <path
   d="m 1449.602,672.539 c -13.497,0 -24.439,-10.941 -24.439,-24.438 v -63.499 c 0,-2.592 1.03,-5.079 2.863,-6.912 1.833,-1.833 4.32,-2.863 6.912,-2.863 h 63.499 c 13.497,0 24.439,10.941 24.439,24.439 v 63.498 c 0,2.593 -1.03,5.079 -2.864,6.912 -1.833,1.834 -4.319,2.863 -6.912,2.863 z"
   style="fill:url(#_Linear1)"
   id="path1" />
            </g>
            <g
   transform="matrix(-0.723344,-0.723344,0.723344,-0.723344,2426.8473,2057.3611)"
   id="g2">
                <path
   d="m 1425.163,427.724 c 0,-12.963 5.15,-25.396 14.316,-34.562 9.166,-9.166 21.598,-14.316 34.562,-14.316 58.046,0 147.103,0 147.103,0 v 97.713 h -186.206 c -2.592,0 -5.079,-1.03 -6.912,-2.863 -1.833,-1.834 -2.863,-4.32 -2.863,-6.913 0,-9.356 0,-24.207 0,-39.059 z"
   style="fill:url(#_Linear2)"
   id="path2" />
            </g>
            <g
   transform="matrix(-0.723344,-0.723344,0.723344,-0.723344,2426.8473,2057.3611)"
   id="g3">
                <path
   d="m 1425.163,427.724 c 0,-12.963 5.15,-25.396 14.316,-34.562 9.166,-9.166 21.598,-14.316 34.562,-14.316 58.046,0 147.103,0 147.103,0 v 97.713 h -186.206 c -2.592,0 -5.079,-1.03 -6.912,-2.863 -1.833,-1.834 -2.863,-4.32 -2.863,-6.913 0,-9.356 0,-24.207 0,-39.059 z"
   style="fill:url(#_Linear3)"
   id="path3" />
            </g>
            <g
   transform="matrix(-0.723344,-0.723344,0.723344,-0.723344,2426.8473,2057.3611)"
   id="g4">
                <path
   d="m 1621.144,378.846 h 48.835 c 12.963,0 25.395,5.15 34.561,14.316 9.167,9.166 14.316,21.599 14.316,34.562 0,54.341 0,141.596 0,195.938 0,12.963 -5.149,25.395 -14.316,34.562 -9.166,9.166 -21.598,14.315 -34.561,14.315 -14.853,0 -29.703,0 -39.06,0 -2.592,0 -5.079,-1.029 -6.912,-2.863 -1.833,-1.833 -2.863,-4.319 -2.863,-6.912 0,-50.968 0,-283.918 0,-283.918 z"
   style="fill:url(#_Linear4)"
   id="path4" />
            </g>
        </g>
    </g>
    <defs
   id="defs13">
        <linearGradient
   id="_Linear1"
   x1="0"
   y1="0"
   x2="1"
   y2="0"
   gradientUnits="userSpaceOnUse"
   gradientTransform="matrix(77.097716,-77.097716,77.097716,77.097716,1438.9062,658.79618)"><stop
     offset="0"
     style="stop-color:rgb(212,212,212);stop-opacity:1"
     id="stop6" /><stop
     offset="1"
     style="stop-color:rgb(153,153,153);stop-opacity:1"
     id="stop7" /></linearGradient>
        <linearGradient
   id="_Linear2"
   x1="0"
   y1="0"
   x2="1"
   y2="0"
   gradientUnits="userSpaceOnUse"
   gradientTransform="matrix(-3.988857,95.975129,-95.975129,-3.988857,1624.0069,381.70928)"><stop
     offset="0"
     style="stop-color:rgb(153,153,153);stop-opacity:1"
     id="stop8" /><stop
     offset="1"
     style="stop-color:rgb(212,213,221);stop-opacity:1"
     id="stop9" /></linearGradient>
        <linearGradient
   id="_Linear3"
   x1="0"
   y1="0"
   x2="1"
   y2="0"
   gradientUnits="userSpaceOnUse"
   gradientTransform="matrix(-54.911261,0.188692,-0.188692,-54.911261,1621.2994,476.40302)"><stop
     offset="0"
     style="stop-color:black;stop-opacity:0.15"
     id="stop10" /><stop
     offset="1"
     style="stop-color:rgb(212,213,221);stop-opacity:0"
     id="stop11" /></linearGradient>
        <linearGradient
   id="_Linear4"
   x1="0"
   y1="0"
   x2="1"
   y2="0"
   gradientUnits="userSpaceOnUse"
   gradientTransform="matrix(-110.40366,32.326074,-32.326074,-110.40366,1725.6351,483.33751)"><stop
     offset="0"
     style="stop-color:rgb(153,153,153);stop-opacity:1"
     id="stop12" /><stop
     offset="1"
     style="stop-color:rgb(217,217,217);stop-opacity:1"
     id="stop13" /></linearGradient>
    </defs>
</svg>
